<svg xmlns="http://www.w3.org/2000/svg" viewBox="0 0 300 500">
<!--
  a
  -->
<g fill="pink">
<path d="m 40.390016,59.459979 -0.950854,0.510244 1.622048,1.275609 4.698347,0.08505 2.013579,-1.658292 -0.61526,-0.212602 z"/>
</g>
<!--
  b
  -->
<g fill="purple">
<path d="m 47.813989,60.339657 -1.370166,1.181174 -0.566963,6.047621 1.181174,0.992188 0.803201,-0.803201 0.566963,-6.614584 z"/>
</g>
<!--
  c
  -->
<g fill="red">
<path d="m 47.466455,69.76097 -0.451068,6.991137 -0.451066,0.714423 -1.443415,-1.581937 0.405962,-5.460231 1.533627,-1.224725 z"/>
</g>
<!--
  d
  -->
<g fill="green">
<path d="m 44.668521,76.539365 -5.339724,0.08355 -1.816609,1.253299 0.660585,0.375989 6.99119,-0.04178 0.935826,-0.501318 z"/>
</g>
<!--
  e
  -->
<g fill="white">
<path d="m 38.411829,
 -0.708704,1.023006 -0.614212,6.291487 0.377976,0.920707 1.417412,-1.227607 0.472469,-5.984587 z"/>
</g>
<!--
  f
  -->
<g fill="grey">
<path d="m 39.167781,60.386904 -0.708705,0.850445 -0.566962,6.52009 0.708705,0.708705 1.133927,-0.708705 0.519719,-6.236608 z"/>
</g>
<!--
  g
  -->
<g fill="yellow">
<path d="m 39.106562,68.844501 1.508511,-0.890366 4.916625,0.04687 0.949803,0.749783 -1.508511,1.077814 h -4.693141 z"/>
</g>

<!--
  topcolon
  -->
<g fill="yellow">
<path d="m 51.549609,62.738259 h 2.138156 l 0.03341,2.973374 -2.171565,-0.03341 z"/>
</g>
<!--
  bottomcolon
  -->
<g fill="yellow">
<path d="m 51.649836,71.424519 h 2.138156 l 0.06682,3.374278 -2.138156,-0.03341 z"/>
</g>


</svg>

